General
Complete name                            : The Bourne Legacy (HD 720p).m4v
Format                                   : MPEG-4
Format profile                           : Base Media / Version 2
Codec ID                                 : mp42
File size                                : 6.34 GiB
Duration                                 : 2h 15mn
Overall bit rate mode                    : Variable
Overall bit rate                         : 6 724 Kbps
Movie name                               : The Bourne Legacy
Performer                                : Jeremy Renner, Rachel Weisz, Edward Norton, Joan Allen, Donna Murphy, Albert Finney, Oscar Isaac, Scott Glenn, Corey Stoll, David Strathairn, Stacy Keach, Michael Papajohn, Dennis Boutsikaris, Sheena Colette, Louis Ozawa Changchien, Michael Chernus, Corey Johnson, Jennifer Kim, Elizabeth Marvel, Shane Jacobson, Page Leong, Robert Christopher Riley, Zeljko Ivanek
Genre                                    : Action, Thriller
Recorded date                            : 2012-08-10
Encoded date                             : UTC 2012-12-28 13:52:14
Tagged date                              : UTC 2012-12-29 21:57:23
Writing application                      : HandBrake 5106svn 2012122501
Cover                                    : Yes
desc                                     : A story centered on new CIA operative, Aaron Cross as he experiences life-or-death stakes that have been triggered by the previous events of Jason Bourne.

Video #1
ID                                       : 1
Format                                   : AVC
Format/Info                              : Advanced Video Codec
Format profile                           : High@L3.1
Format settings, CABAC                   : Yes
Format settings, ReFrames                : 4 frames
Codec ID                                 : avc1
Codec ID/Info                            : Advanced Video Coding
Duration                                 : 2h 15mn
Bit rate mode                            : Variable
Bit rate                                 : 5 879 Kbps
Width                                    : 1 280 pixels
Height                                   : 528 pixels
Display aspect ratio                     : 2.40:1
Frame rate mode                          : Variable
Frame rate                               : 23.976 fps
Minimum frame rate                       : 19.561 fps
Maximum frame rate                       : 90 000.000 fps
Color space                              : YUV
Chroma subsampling                       : 4:2:0
Bit depth                                : 8 bits
Scan type                                : Progressive
Bits/(Pixel*Frame)                       : 0.363
Stream size                              : 5.55 GiB (87%)
Writing library                          : x264 core 128
Encoding settings                        : cabac=1 / ref=4 / deblock=1:0:0 / analyse=0x3:0x133 / me=umh / subme=10 / psy=1 / psy_rd=1.00:0.15 / mixed_ref=1 / me_range=32 / chroma_me=1 / trellis=2 / 8x8dct=1 / cqm=0 / deadzone=21,11 / fast_pskip=1 / chroma_qp_offset=-3 / threads=12 / lookahead_threads=2 / sliced_threads=0 / nr=0 / decimate=1 / interlaced=0 / bluray_compat=0 / constrained_intra=0 / bframes=4 / b_pyramid=2 / b_adapt=2 / b_bias=0 / direct=3 / weightb=1 / open_gop=0 / weightp=2 / keyint=300 / keyint_min=30 / scenecut=40 / intra_refresh=0 / rc_lookahead=60 / rc=crf / mbtree=1 / crf=18.0 / qcomp=0.60 / qpmin=4 / qpmax=69 / qpstep=4 / ip_ratio=1.40 / aq=1:1.00
Language                                 : English
Encoded date                             : UTC 2012-12-28 13:52:14
Tagged date                              : UTC 2012-12-28 18:03:00
Color primaries                          : BT.709
Transfer characteristics                 : BT.709
Matrix coefficients                      : BT.709

Audio #1
ID                                       : 2
Format                                   : AAC
Format/Info                              : Advanced Audio Codec
Format profile                           : LC
Codec ID                                 : 40
Duration                                 : 2h 15mn
Bit rate mode                            : Variable
Bit rate                                 : 197 Kbps
Maximum bit rate                         : 327 Kbps
Channel(s)                               : 2 channels
Channel positions                        : Front: L R
Sampling rate                            : 48.0 KHz
Compression mode                         : Lossy
Delay relative to video                  : 83ms
Stream size                              : 190 MiB (3%)
Language                                 : English
Encoded date                             : UTC 2012-12-28 13:52:14
Tagged date                              : UTC 2012-12-28 18:03:00

Audio #2
ID                                       : 3
Format                                   : AC-3
Format/Info                              : Audio Coding 3
Mode extension                           : CM (complete main)
Format settings, Endianness              : Big
Codec ID                                 : ac-3
Duration                                 : 2h 15mn
Bit rate mode                            : Constant
Bit rate                                 : 640 Kbps
Channel(s)                               : 6 channels
Channel positions                        : Front: L C R, Side: L R, LFE
Sampling rate                            : 48.0 KHz
Bit depth                                : 16 bits
Compression mode                         : Lossy
Delay relative to video                  : 83ms
Stream size                              : 618 MiB (10%)
Language                                 : English
Encoded date                             : UTC 2012-12-28 13:52:14
Tagged date                              : UTC 2012-12-28 18:03:00